<?xml version="1.0" standalone="no"?>
<!DOCTYPE svg PUBLIC "-//W3C//DTD SVG 20010904//EN"
 "http://www.w3.org/TR/2001/REC-SVG-20010904/DTD/svg10.dtd">
<svg version="1.0" xmlns="http://www.w3.org/2000/svg"
 width="460.000000pt" height="460.000000pt" viewBox="0 0 460.000000 460.000000"
 preserveAspectRatio="xMidYMid meet">
<metadata>
Created by potrace 1.14, written by Peter Selinger 2001-2017
</metadata>
<g transform="translate(0.000000,460.000000) scale(0.100000,-0.100000)"
fill="#000000" stroke="none">
<path d="M376 4593 c-11 -11 -6 -23 9 -23 8 0 15 4 15 9 0 13 -16 22 -24 14z"/>
<path d="M570 4580 c0 -5 7 -10 15 -10 8 0 15 5 15 10 0 6 -7 10 -15 10 -8 0
-15 -4 -15 -10z"/>
<path d="M240 4569 c0 -5 5 -7 10 -4 6 3 10 8 10 11 0 2 -4 4 -10 4 -5 0 -10
-5 -10 -11z"/>
<path d="M810 4490 c0 -5 5 -10 10 -10 6 0 10 5 10 10 0 6 -4 10 -10 10 -5 0
-10 -4 -10 -10z"/>
<path d="M4400 4490 c0 -12 8 -12 35 0 18 8 17 9 -7 9 -16 1 -28 -3 -28 -9z"/>
<path d="M740 4370 c0 -5 7 -10 16 -10 8 0 12 5 9 10 -3 6 -10 10 -16 10 -5 0
-9 -4 -9 -10z"/>
<path d="M1231 4361 c-23 -15 3 -20 29 -5 22 12 23 13 5 13 -11 1 -26 -3 -34
-8z"/>
<path d="M358 4343 c7 -3 16 -2 19 1 4 3 -2 6 -13 5 -11 0 -14 -3 -6 -6z"/>
<path d="M1000 4346 c0 -9 30 -14 35 -6 4 6 -3 10 -14 10 -12 0 -21 -2 -21 -4z"/>
<path d="M210 4322 c0 -5 14 -9 30 -10 17 0 28 4 25 9 -8 11 -55 12 -55 1z"/>
<path d="M300 4320 c0 -5 10 -10 23 -10 18 0 19 2 7 10 -19 13 -30 13 -30 0z"/>
<path d="M368 4313 c6 -2 18 -2 25 0 6 3 1 5 -13 5 -14 0 -19 -2 -12 -5z"/>
<path d="M450 4310 c0 -5 12 -10 28 -10 21 0 24 2 12 10 -20 13 -40 13 -40 0z"/>
<path d="M3080 4316 c0 -8 51 -13 56 -5 3 5 -9 9 -25 9 -17 0 -31 -2 -31 -4z"/>
<path d="M3995 4300 c-3 -5 1 -10 10 -10 9 0 13 5 10 10 -3 6 -8 10 -10 10 -2
0 -7 -4 -10 -10z"/>
<path d="M650 4290 c0 -5 15 -10 33 -9 27 0 29 2 12 9 -28 12 -45 12 -45 0z"/>
<path d="M3020 4270 c-8 -5 -10 -10 -5 -10 6 0 17 5 25 10 8 5 11 10 5 10 -5
0 -17 -5 -25 -10z"/>
<path d="M3448 4253 c7 -3 16 -2 19 1 4 3 -2 6 -13 5 -11 0 -14 -3 -6 -6z"/>
<path d="M4320 4250 c0 -5 5 -10 11 -10 5 0 7 5 4 10 -3 6 -8 10 -11 10 -2 0
-4 -4 -4 -10z"/>
<path d="M2755 4217 c-16 -7 -49 -25 -73 -40 -23 -15 -48 -25 -54 -21 -6 4 -8
3 -4 -4 4 -6 -13 -24 -39 -42 -25 -17 -45 -27 -45 -21 0 15 -40 24 -54 12 -7
-6 -63 -14 -124 -18 -122 -7 -148 -15 -119 -37 15 -11 18 -26 16 -78 -3 -88
-6 -93 -63 -95 -64 -2 -92 -10 -94 -25 -12 -93 -13 -130 -2 -143 14 -17 50
-20 50 -5 0 14 30 12 34 -2 34 -109 70 -158 116 -158 39 0 46 -16 42 -94 l-4
-66 -36 0 c-29 0 -46 -9 -79 -41 -24 -22 -46 -51 -49 -65 -3 -13 -13 -24 -21
-24 -28 0 -83 41 -89 66 -11 45 -88 67 -149 44 -32 -12 -41 -35 -25 -64 14
-27 10 -71 -7 -71 -6 0 -25 18 -41 41 -21 29 -40 43 -63 48 -36 7 -141 -12
-134 -24 3 -5 -2 -10 -10 -14 -21 -8 -19 -39 5 -81 27 -49 26 -55 -17 -55
l-38 0 0 52 c0 44 -4 54 -28 72 -57 42 -120 28 -152 -35 -26 -49 1 -102 59
-115 17 -3 46 -15 64 -26 25 -16 44 -19 75 -15 75 11 82 13 104 46 24 35 22
43 -20 104 -10 15 -9 21 7 33 21 15 76 19 76 6 0 -5 17 -27 38 -50 48 -52 93
-57 141 -16 35 29 38 42 15 86 -15 29 -15 30 1 24 9 -3 20 -6 25 -6 4 0 17
-16 29 -35 11 -20 36 -42 53 -50 38 -15 121 -26 135 -16 16 10 33 49 28 63 -8
19 42 68 68 67 21 0 21 -1 2 -9 -11 -5 -14 -9 -7 -9 9 -1 12 -31 12 -114 0
-101 -2 -113 -20 -125 -11 -7 -20 -20 -20 -29 0 -9 -9 -56 -19 -103 -11 -47
-26 -114 -34 -150 -17 -73 -60 -202 -90 -270 -11 -25 -41 -110 -68 -190 -26
-80 -55 -165 -64 -189 -9 -25 -14 -55 -11 -67 4 -13 0 -27 -10 -35 -8 -7 -21
-24 -29 -39 -7 -14 -25 -32 -39 -39 -13 -8 -54 -58 -90 -112 -59 -88 -64 -101
-59 -135 l6 -37 -52 29 c-29 16 -70 44 -91 62 -41 34 -66 40 -92 20 -20 -16
-38 -79 -38 -134 0 -28 -6 -47 -20 -59 -11 -10 -20 -29 -20 -43 0 -39 -29
-128 -51 -156 -24 -31 -74 -46 -152 -46 -64 0 -124 -20 -134 -45 -4 -11 4 -26
21 -41 14 -14 26 -28 26 -33 0 -17 36 -48 69 -59 19 -7 55 -12 81 -12 46 0 47
-1 42 -27 -3 -15 -23 -54 -44 -87 -21 -33 -41 -72 -44 -86 -13 -58 -39 -103
-76 -126 -22 -14 -40 -35 -44 -51 -4 -15 -13 -38 -20 -52 -8 -14 -14 -31 -14
-38 0 -7 -10 -21 -21 -32 -16 -15 -42 -21 -109 -27 -81 -6 -89 -8 -94 -29 -3
-13 -21 -33 -40 -44 -59 -37 -56 -62 11 -80 48 -13 83 -61 83 -117 0 -19 4
-34 9 -34 5 0 12 -22 16 -49 4 -28 13 -55 20 -61 21 -17 59 -8 63 15 2 11 11
28 20 38 14 16 14 23 2 65 -15 53 -17 86 -6 122 6 20 1 32 -19 54 -25 27 -25
29 -8 42 10 7 36 14 58 14 33 0 49 8 93 46 28 25 52 51 52 58 0 17 30 43 54
47 20 4 105 159 109 200 1 13 7 33 14 44 6 11 14 36 18 55 4 19 10 39 13 45 3
5 7 20 8 32 2 13 9 37 18 54 25 50 9 64 -97 90 -42 10 -79 33 -46 28 49 -6 72
4 124 54 30 29 55 56 55 59 0 3 20 26 45 50 45 45 45 46 46 119 1 41 2 79 4
84 1 6 3 18 3 27 2 14 15 7 63 -31 69 -56 100 -65 143 -44 32 15 69 78 82 138
4 17 15 46 24 65 21 40 71 90 76 75 2 -5 22 -35 44 -65 22 -30 49 -73 60 -95
17 -36 17 -41 3 -57 -14 -16 -13 -20 8 -47 13 -17 32 -33 42 -36 21 -8 78 13
90 32 4 7 13 13 19 13 6 0 3 -9 -6 -19 -10 -11 -15 -24 -12 -29 3 -5 -2 -31
-10 -58 -9 -27 -19 -76 -24 -108 -5 -33 -18 -71 -28 -85 -10 -14 -25 -43 -32
-65 -10 -32 -10 -40 2 -53 19 -18 81 -33 99 -23 8 4 35 10 62 12 46 5 47 5 47
-22 0 -25 -26 -98 -51 -144 -6 -10 -12 -48 -14 -83 -2 -36 -11 -75 -19 -87 -8
-13 -18 -39 -21 -59 -6 -32 -5 -37 16 -42 28 -7 147 17 203 40 41 18 56 11 56
-27 0 -33 30 -131 50 -165 11 -19 20 -43 20 -53 0 -10 5 -22 10 -25 6 -3 10
-15 10 -26 0 -11 14 -34 30 -51 17 -16 30 -36 30 -43 0 -23 42 -30 57 -9 17
23 17 89 -1 122 -8 15 -22 59 -31 97 -30 123 -77 280 -87 292 -11 14 -61 7
-93 -12 -11 -7 -40 -16 -64 -19 -39 -6 -43 -5 -38 11 2 10 10 41 17 68 7 28
36 100 66 160 30 61 54 120 54 132 0 20 -22 51 -38 54 -25 5 -68 9 -143 15
-82 6 -86 8 -81 28 2 11 10 28 17 36 7 8 19 29 27 45 8 17 36 71 62 121 54
107 64 146 44 164 -8 8 -12 26 -10 41 3 24 0 29 -23 35 -18 4 -30 2 -36 -7 -4
-7 -11 -11 -14 -7 -4 3 -33 -7 -65 -23 -96 -48 -102 -46 -122 36 -10 38 -24
83 -31 100 -8 16 -20 46 -27 65 -6 19 -17 45 -22 56 -10 21 -7 38 34 214 6 25
14 65 19 90 4 25 22 81 39 125 18 44 41 112 52 150 11 39 27 82 35 98 8 15 12
27 9 27 -3 0 5 24 18 53 13 29 27 83 30 120 4 37 12 65 17 62 11 -7 15 13 34
160 24 185 25 189 39 203 11 12 20 7 52 -28 22 -23 48 -46 59 -50 31 -11 95 8
132 40 19 17 38 30 43 30 5 0 17 -13 26 -30 23 -37 83 -62 151 -63 57 0 76 11
99 55 l15 28 27 -26 c40 -38 71 -52 148 -65 81 -15 80 -14 65 -33 -9 -11 -6
-15 16 -21 16 -5 32 -7 37 -6 4 1 23 -3 42 -9 32 -11 91 0 117 20 4 3 0 29 -8
58 -13 44 -22 55 -55 72 -47 24 -97 26 -127 5 -12 -9 -33 -14 -45 -11 -56 10
-116 32 -157 58 -25 15 -51 28 -58 28 -7 0 -30 -16 -51 -35 -22 -19 -42 -31
-46 -27 -4 4 -6 0 -4 -8 2 -9 -6 -16 -19 -18 -15 -2 -36 12 -72 48 -49 50 -51
51 -98 45 -37 -5 -54 -13 -75 -38 -16 -17 -28 -35 -28 -39 0 -17 -27 -7 -74
27 -27 19 -55 35 -62 35 -8 0 -11 6 -8 15 6 14 -10 20 -43 16 -9 -1 -13 13
-13 41 0 24 -3 59 -6 79 -6 34 -5 36 37 53 56 21 79 53 88 122 6 45 5 57 -8
64 -13 8 -11 10 9 11 14 1 36 2 50 4 14 1 35 2 47 3 21 2 22 6 20 70 l-2 67
-53 5 -54 5 35 46 c20 25 49 52 66 59 17 7 31 16 31 21 0 4 21 20 48 35 26 15
64 37 84 50 21 13 44 24 51 24 8 0 26 10 41 21 20 15 26 29 24 48 -3 25 -6 26
-68 28 -36 1 -78 -3 -95 -10z m75 -41 c-57 -38 -182 -107 -187 -102 -8 8 107
91 149 108 61 24 78 22 38 -6z"/>
<path d="M658 4113 c7 -3 16 -2 19 1 4 3 -2 6 -13 5 -11 0 -14 -3 -6 -6z"/>
<path d="M756 4111 c-4 -5 -2 -12 3 -15 5 -4 12 -2 15 3 4 5 2 12 -3 15 -5 4
-12 2 -15 -3z"/>
<path d="M865 4100 c3 -5 8 -10 11 -10 2 0 4 5 4 10 0 6 -5 10 -11 10 -5 0 -7
-4 -4 -10z"/>
<path d="M3301 4088 c-1 -10 1 -18 3 -18 2 0 11 -3 20 -6 9 -3 16 -1 16 5 0 6
-6 11 -14 11 -8 0 -17 6 -19 13 -3 7 -6 5 -6 -5z"/>
<path d="M4038 4093 c7 -3 16 -2 19 1 4 3 -2 6 -13 5 -11 0 -14 -3 -6 -6z"/>
<path d="M1210 4080 c0 -5 14 -10 30 -10 17 0 30 5 30 10 0 6 -13 10 -30 10
-16 0 -30 -4 -30 -10z"/>
<path d="M1490 4081 c0 -12 39 -21 45 -11 3 4 -2 11 -11 14 -22 8 -34 7 -34
-3z"/>
<path d="M3230 4086 c0 -2 11 -6 25 -8 13 -3 22 -1 19 3 -5 9 -44 13 -44 5z"/>
<path d="M1294 4071 c3 -5 17 -8 31 -8 14 0 25 3 25 8 0 5 -14 9 -31 9 -16 0
-28 -4 -25 -9z"/>
<path d="M3360 4070 c0 -5 15 -10 33 -9 27 0 29 2 12 9 -28 12 -45 12 -45 0z"/>
<path d="M3790 4052 c0 -10 36 -9 46 1 4 4 -5 7 -19 7 -15 0 -27 -4 -27 -8z"/>
<path d="M4175 4021 c-3 -5 -1 -12 5 -16 5 -3 10 1 10 9 0 18 -6 21 -15 7z"/>
<path d="M4098 4013 c7 -3 16 -2 19 1 4 3 -2 6 -13 5 -11 0 -14 -3 -6 -6z"/>
<path d="M4368 4013 c6 -2 18 -2 25 0 6 3 1 5 -13 5 -14 0 -19 -2 -12 -5z"/>
<path d="M545 4000 c-3 -5 -1 -10 4 -10 6 0 11 5 11 10 0 6 -2 10 -4 10 -3 0
-8 -4 -11 -10z"/>
<path d="M1094 3999 c12 -8 25 -8 40 -1 18 9 16 11 -19 11 -33 0 -37 -1 -21
-10z"/>
<path d="M1520 4000 c0 -5 5 -10 10 -10 6 0 10 5 10 10 0 6 -4 10 -10 10 -5 0
-10 -4 -10 -10z"/>
<path d="M1570 4000 c0 -6 7 -10 15 -10 8 0 15 2 15 4 0 2 -7 6 -15 10 -8 3
-15 1 -15 -4z"/>
<path d="M608 3993 c7 -3 16 -2 19 1 4 3 -2 6 -13 5 -11 0 -14 -3 -6 -6z"/>
<path d="M659 3989 c-6 -3 7 -8 31 -11 23 -2 44 0 46 4 3 4 -1 8 -8 9 -7 0
-23 2 -35 3 -12 1 -28 -1 -34 -5z"/>
<path d="M1330 3990 c0 -5 5 -10 10 -10 6 0 10 5 10 10 0 6 -4 10 -10 10 -5 0
-10 -4 -10 -10z"/>
<path d="M1365 3990 c3 -5 13 -10 21 -10 8 0 12 5 9 10 -3 6 -13 10 -21 10 -8
0 -12 -4 -9 -10z"/>
<path d="M850 3981 l-25 -7 28 -6 c19 -4 27 -1 27 8 0 8 -1 14 -2 13 -2 -1
-14 -4 -28 -8z"/>
<path d="M3980 3980 c0 -5 5 -10 10 -10 6 0 10 5 10 10 0 6 -4 10 -10 10 -5 0
-10 -4 -10 -10z"/>
<path d="M3578 3963 c7 -3 16 -2 19 1 4 3 -2 6 -13 5 -11 0 -14 -3 -6 -6z"/>
<path d="M3225 3920 c-3 -5 -1 -10 4 -10 6 0 11 5 11 10 0 6 -2 10 -4 10 -3 0
-8 -4 -11 -10z"/>
<path d="M3535 3920 c-3 -5 1 -10 10 -10 9 0 13 5 10 10 -3 6 -8 10 -10 10 -2
0 -7 -4 -10 -10z"/>
<path d="M3295 3910 c4 -6 11 -8 16 -5 14 9 11 15 -7 15 -8 0 -12 -5 -9 -10z"/>
<path d="M4135 3900 c-4 -6 7 -10 25 -10 18 0 29 4 25 10 -3 6 -15 10 -25 10
-10 0 -22 -4 -25 -10z"/>
<path d="M4436 3901 c-6 -9 35 -24 43 -15 6 5 -18 24 -31 24 -4 0 -9 -4 -12
-9z"/>
<path d="M3023 3840 c2 -27 32 -39 50 -21 16 16 0 26 -18 11 -12 -10 -16 -8
-25 11 l-10 24 3 -25z"/>
<path d="M1120 3829 c0 -5 5 -7 10 -4 6 3 10 8 10 11 0 2 -4 4 -10 4 -5 0 -10
-5 -10 -11z"/>
<path d="M1018 3813 c7 -3 16 -2 19 1 4 3 -2 6 -13 5 -11 0 -14 -3 -6 -6z"/>
<path d="M4015 3810 c-3 -5 1 -10 10 -10 9 0 13 5 10 10 -3 6 -8 10 -10 10 -2
0 -7 -4 -10 -10z"/>
<path d="M3718 3803 c7 -3 16 -2 19 1 4 3 -2 6 -13 5 -11 0 -14 -3 -6 -6z"/>
<path d="M490 3789 c52 -14 62 -15 66 -4 2 6 -19 11 -49 12 -50 2 -50 1 -17
-8z"/>
<path d="M660 3780 c0 -5 5 -10 10 -10 6 0 10 5 10 10 0 6 -4 10 -10 10 -5 0
-10 -4 -10 -10z"/>
<path d="M920 3780 c0 -5 5 -10 11 -10 5 0 7 5 4 10 -3 6 -8 10 -11 10 -2 0
-4 -4 -4 -10z"/>
<path d="M3779 3779 c16 -6 28 -6 35 1 7 7 -1 10 -24 9 -33 0 -34 -1 -11 -10z"/>
<path d="M3102 3761 c-11 -7 -11 -9 2 -14 10 -4 16 -1 16 8 0 17 -1 17 -18 6z"/>
<path d="M235 3742 c-12 -12 -3 -19 21 -16 36 4 40 11 10 16 -14 3 -28 3 -31
0z"/>
<path d="M306 3729 c3 -5 21 -9 41 -9 20 0 33 3 29 7 -11 11 -77 13 -70 2z"/>
<path d="M3354 3729 c-3 -5 7 -9 22 -9 15 0 24 3 20 7 -11 11 -35 12 -42 2z"/>
<path d="M1340 3726 c0 -2 7 -7 16 -10 8 -3 12 -2 9 4 -6 10 -25 14 -25 6z"/>
<path d="M4230 3700 c0 -5 5 -10 11 -10 5 0 7 5 4 10 -3 6 -8 10 -11 10 -2 0
-4 -4 -4 -10z"/>
<path d="M2553 3693 c9 -2 23 -2 30 0 6 3 -1 5 -18 5 -16 0 -22 -2 -12 -5z"/>
<path d="M4525 3690 c-4 -6 7 -10 27 -9 27 0 30 2 13 9 -27 12 -33 12 -40 0z"/>
<path d="M820 3680 c0 -5 7 -10 16 -10 8 0 12 5 9 10 -3 6 -10 10 -16 10 -5 0
-9 -4 -9 -10z"/>
<path d="M878 3673 c7 -3 16 -2 19 1 4 3 -2 6 -13 5 -11 0 -14 -3 -6 -6z"/>
<path d="M1235 3660 c-3 -5 1 -13 10 -16 22 -9 29 1 11 15 -10 8 -16 9 -21 1z"/>
<path d="M3665 3660 c-3 -5 1 -13 10 -16 22 -9 29 1 11 15 -10 8 -16 9 -21 1z"/>
<path d="M3735 3650 c3 -5 8 -10 11 -10 2 0 4 5 4 10 0 6 -5 10 -11 10 -5 0
-7 -4 -4 -10z"/>
<path d="M517 3629 c8 -8 16 -8 30 0 16 9 14 10 -11 11 -22 0 -27 -3 -19 -11z"/>
<path d="M3850 3629 c0 -5 9 -9 20 -9 11 0 20 2 20 4 0 2 -9 6 -20 9 -11 3
-20 1 -20 -4z"/>
<path d="M3178 3623 c7 -3 16 -2 19 1 4 3 -2 6 -13 5 -11 0 -14 -3 -6 -6z"/>
<path d="M771 3594 c0 -11 3 -14 6 -6 3 7 2 16 -1 19 -3 4 -6 -2 -5 -13z"/>
<path d="M4120 3570 c0 -5 7 -10 16 -10 8 0 12 5 9 10 -3 6 -10 10 -16 10 -5
0 -9 -4 -9 -10z"/>
<path d="M4188 3563 c7 -3 16 -2 19 1 4 3 -2 6 -13 5 -11 0 -14 -3 -6 -6z"/>
<path d="M4445 3520 c-3 -5 3 -10 15 -10 12 0 18 5 15 10 -3 6 -10 10 -15 10
-5 0 -12 -4 -15 -10z"/>
<path d="M1270 3510 c0 -5 4 -10 9 -10 6 0 13 5 16 10 3 6 -1 10 -9 10 -9 0
-16 -4 -16 -10z"/>
<path d="M3698 3513 c7 -3 16 -2 19 1 4 3 -2 6 -13 5 -11 0 -14 -3 -6 -6z"/>
<path d="M20 3490 c0 -5 5 -10 10 -10 6 0 10 5 10 10 0 6 -4 10 -10 10 -5 0
-10 -4 -10 -10z"/>
<path d="M675 3490 c-3 -5 -1 -10 4 -10 6 0 11 5 11 10 0 6 -2 10 -4 10 -3 0
-8 -4 -11 -10z"/>
<path d="M3906 3491 c-4 -5 -2 -12 3 -15 5 -4 12 -2 15 3 4 5 2 12 -3 15 -5 4
-12 2 -15 -3z"/>
<path d="M3968 3493 c-10 -2 -18 -8 -18 -13 0 -5 8 -9 18 -9 9 -1 34 -4 55 -7
24 -4 37 -2 37 5 0 6 7 11 15 11 8 0 15 -4 15 -10 0 -5 7 -10 15 -10 17 0 20
16 5 25 -13 8 -119 14 -142 8z"/>
<path d="M825 3460 c3 -5 10 -10 16 -10 5 0 9 5 9 10 0 6 -7 10 -16 10 -8 0
-12 -4 -9 -10z"/>
<path d="M970 3460 c0 -5 4 -10 9 -10 6 0 13 5 16 10 3 6 -1 10 -9 10 -9 0
-16 -4 -16 -10z"/>
<path d="M1015 3460 c-3 -5 1 -10 9 -10 9 0 16 5 16 10 0 6 -4 10 -9 10 -6 0
-13 -4 -16 -10z"/>
<path d="M4178 3443 c6 -2 18 -2 25 0 6 3 1 5 -13 5 -14 0 -19 -2 -12 -5z"/>
<path d="M698 3388 c13 -13 52 -19 52 -7 0 3 -10 9 -22 13 -35 9 -43 7 -30 -6z"/>
<path d="M770 3380 c0 -5 5 -10 11 -10 5 0 7 5 4 10 -3 6 -8 10 -11 10 -2 0
-4 -4 -4 -10z"/>
<path d="M4245 3341 c-3 -6 0 -13 7 -15 25 -9 188 -12 188 -5 0 4 -8 8 -17 9
-92 4 -141 9 -154 15 -10 3 -20 2 -24 -4z"/>
<path d="M1338 3323 c6 -2 18 -2 25 0 6 3 1 5 -13 5 -14 0 -19 -2 -12 -5z"/>
<path d="M3278 3323 c6 -2 18 -2 25 0 6 3 1 5 -13 5 -14 0 -19 -2 -12 -5z"/>
<path d="M4450 3321 c0 -13 59 -22 99 -15 30 6 33 8 16 15 -28 11 -115 11
-115 0z"/>
<path d="M3848 3303 c7 -3 16 -2 19 1 4 3 -2 6 -13 5 -11 0 -14 -3 -6 -6z"/>
<path d="M3901 3296 c11 -9 69 -14 69 -6 0 6 -16 10 -37 10 -20 0 -34 -2 -32
-4z"/>
<path d="M891 3254 c13 -16 39 -19 39 -5 0 5 -11 11 -25 13 -20 4 -23 3 -14
-8z"/>
<path d="M3630 3220 c0 -5 5 -10 10 -10 6 0 10 5 10 10 0 6 -4 10 -10 10 -5 0
-10 -4 -10 -10z"/>
<path d="M3605 3140 c3 -5 11 -10 16 -10 6 0 7 5 4 10 -3 6 -11 10 -16 10 -6
0 -7 -4 -4 -10z"/>
<path d="M3655 3140 c-3 -5 -1 -10 4 -10 6 0 11 5 11 10 0 6 -2 10 -4 10 -3 0
-8 -4 -11 -10z"/>
<path d="M4370 3130 c0 -5 5 -10 10 -10 6 0 10 5 10 10 0 6 -4 10 -10 10 -5 0
-10 -4 -10 -10z"/>
<path d="M4420 3132 c0 -9 80 -23 89 -15 9 7 -9 15 -48 20 -25 3 -41 2 -41 -5z"/>
<path d="M296 3101 c-4 -5 -2 -12 3 -15 5 -4 12 -2 15 3 4 5 2 12 -3 15 -5 4
-12 2 -15 -3z"/>
<path d="M670 2990 c0 -5 7 -10 15 -10 8 0 15 5 15 10 0 6 -7 10 -15 10 -8 0
-15 -4 -15 -10z"/>
<path d="M938 2963 c7 -3 16 -2 19 1 4 3 -2 6 -13 5 -11 0 -14 -3 -6 -6z"/>
<path d="M1091 2954 c0 -11 3 -14 6 -6 3 7 2 16 -1 19 -3 4 -6 -2 -5 -13z"/>
<path d="M3385 2890 c-3 -5 3 -10 15 -10 12 0 18 5 15 10 -3 6 -10 10 -15 10
-5 0 -12 -4 -15 -10z"/>
<path d="M3920 2850 c0 -5 5 -10 11 -10 5 0 7 5 4 10 -3 6 -8 10 -11 10 -2 0
-4 -4 -4 -10z"/>
<path d="M4520 2849 c0 -5 5 -7 10 -4 6 3 10 8 10 11 0 2 -4 4 -10 4 -5 0 -10
-5 -10 -11z"/>
<path d="M1140 2799 c0 -5 9 -9 20 -9 11 0 20 2 20 4 0 2 -9 6 -20 9 -11 3
-20 1 -20 -4z"/>
<path d="M4320 2800 c0 -5 5 -10 11 -10 5 0 7 5 4 10 -3 6 -8 10 -11 10 -2 0
-4 -4 -4 -10z"/>
<path d="M4260 2790 c0 -5 4 -10 9 -10 6 0 13 5 16 10 3 6 -1 10 -9 10 -9 0
-16 -4 -16 -10z"/>
<path d="M640 2730 c0 -5 4 -10 9 -10 6 0 13 5 16 10 3 6 -1 10 -9 10 -9 0
-16 -4 -16 -10z"/>
<path d="M1058 2653 c6 -2 18 -2 25 0 6 3 1 5 -13 5 -14 0 -19 -2 -12 -5z"/>
<path d="M805 2630 c4 -6 11 -8 16 -5 14 9 11 15 -7 15 -8 0 -12 -5 -9 -10z"/>
<path d="M3945 2610 c-3 -5 -1 -10 4 -10 6 0 11 5 11 10 0 6 -2 10 -4 10 -3 0
-8 -4 -11 -10z"/>
<path d="M4030 2610 c0 -5 5 -10 10 -10 6 0 10 5 10 10 0 6 -4 10 -10 10 -5 0
-10 -4 -10 -10z"/>
<path d="M1410 2574 c0 -9 7 -14 17 -12 25 5 28 28 4 28 -12 0 -21 -6 -21 -16z"/>
<path d="M2850 2530 c0 -5 7 -10 16 -10 8 0 12 5 9 10 -3 6 -10 10 -16 10 -5
0 -9 -4 -9 -10z"/>
<path d="M720 2490 c0 -5 5 -10 10 -10 6 0 10 5 10 10 0 6 -4 10 -10 10 -5 0
-10 -4 -10 -10z"/>
<path d="M4306 2421 c-3 -5 1 -11 9 -15 9 -3 15 0 15 9 0 16 -16 20 -24 6z"/>
<path d="M1388 2393 c6 -2 18 -2 25 0 6 3 1 5 -13 5 -14 0 -19 -2 -12 -5z"/>
<path d="M3660 2380 c0 -5 5 -10 10 -10 6 0 10 5 10 10 0 6 -4 10 -10 10 -5 0
-10 -4 -10 -10z"/>
<path d="M520 2310 c0 -5 4 -10 9 -10 6 0 13 5 16 10 3 6 -1 10 -9 10 -9 0
-16 -4 -16 -10z"/>
<path d="M3277 2303 c-4 -3 -7 -11 -7 -17 0 -6 5 -5 12 2 6 6 9 14 7 17 -3 3
-9 2 -12 -2z"/>
<path d="M2946 1524 c-4 -9 3 -18 19 -24 14 -5 25 -14 25 -19 0 -15 58 -34 85
-27 14 4 25 13 25 22 0 8 -5 12 -11 9 -6 -4 -16 0 -22 9 -7 9 -26 18 -44 20
-17 3 -40 9 -51 15 -16 8 -21 7 -26 -5z"/>
<path d="M2706 983 c-3 -4 -6 -17 -6 -30 0 -16 6 -23 20 -23 14 0 20 7 20 24
0 23 -22 41 -34 29z"/>
<path d="M2727 813 c-4 -3 -7 -15 -7 -25 0 -13 7 -18 25 -18 27 0 33 18 13 38
-14 14 -22 15 -31 5z"/>
</g>
</svg>
